<?xml version="1.0" encoding="UTF-8"?>
<!-- Generator: Adobe Illustrator 18.1.1, SVG Export Plug-In . SVG Version: 6.00 Build 0)  -->
<!DOCTYPE svg PUBLIC "-//W3C//DTD SVG 1.1//EN" "http://www.w3.org/Graphics/SVG/1.1/DTD/svg11.dtd">
<svg version="1.1" id="Layer_1" xmlns="http://www.w3.org/2000/svg" xmlns:xlink="http://www.w3.org/1999/xlink" x="0px" y="0px" viewBox="-109 57 32 32" enable-background="new -109 57 32 32" xml:space="preserve">
<g>
	<path fill="#7B8D9A" d="M-91.9,59.1c-8.2,0-14.9,6.7-14.9,14.9S-100.2,89-91.9,89S-77,82.3-77,74.1S-83.7,59.1-91.9,59.1z    M-84.6,75.8l-6.7,5.9c-0.2,0.2-0.5,0.3-0.7,0.3c-0.3,0-0.5-0.1-0.7-0.3l-6.7-5.9c-0.4-0.4-0.4-1,0-1.4c0.4-0.4,1-0.4,1.4,0l6,5.3   l6-5.3c0.4-0.4,1-0.4,1.4,0C-84.2,74.8-84.2,75.4-84.6,75.8z M-84.6,68.6l-6.7,5.9c-0.2,0.2-0.5,0.3-0.7,0.3   c-0.3,0-0.5-0.1-0.7-0.3l-6.7-5.9c-0.4-0.4-0.4-1,0-1.4c0.4-0.4,1-0.4,1.4,0l6,5.3l6-5.3c0.4-0.4,1-0.4,1.4,0   C-84.2,67.6-84.2,68.2-84.6,68.6z"/>
</g>
<style xmlns="" type="text/css" id="undefined"/></svg>